<svg xmlns="http://www.w3.org/2000/svg" viewBox="0 0 40 40" width="45" height="40">
	<style>
		tspan { white-space:pre }
		.shp0 { display: none;fill: #121212 } 
		.shp1 { fill: #000000 } 
		.shp2 { fill: #ffffff } 
	</style>
	<g id="Layer" style="display: none">
		<path id="Layer" fill-rule="evenodd" class="shp0" d="M53.27 12C54.33 11.99 55.39 12.19 56.38 12.58C57.37 12.98 58.27 13.56 59.04 14.3C59.8 15.05 60.41 15.93 60.83 16.91C61.26 17.88 61.48 18.94 61.5 20C61.48 21.07 61.26 22.12 60.83 23.1C60.4 24.08 59.79 24.97 59.02 25.71C58.25 26.46 57.34 27.04 56.35 27.43C55.35 27.83 54.29 28.02 53.22 28C53.06 28 52.9 28 52.74 27.99C52.59 27.98 52.43 27.97 52.27 27.95C52.11 27.93 51.95 27.91 51.8 27.88C51.64 27.86 51.48 27.83 51.33 27.79C51.28 27.78 51.23 27.76 51.18 27.75C50.94 27.69 50.69 27.62 50.46 27.54C50.31 27.49 50.17 27.43 50.04 27.38C49.9 27.32 49.76 27.27 49.63 27.21C49.4 27.1 49.18 26.98 48.96 26.85C48.92 26.83 48.88 26.81 48.84 26.79C48.64 26.67 48.45 26.54 48.26 26.41C48.08 26.27 47.9 26.13 47.72 25.98C47.55 25.83 47.38 25.67 47.22 25.51C47.06 25.35 46.9 25.18 46.75 25C46.61 25.18 46.45 25.35 46.29 25.51C46.13 25.67 45.96 25.83 45.79 25.98C45.61 26.13 45.43 26.27 45.24 26.41C45.06 26.54 44.87 26.67 44.67 26.79C44.63 26.81 44.59 26.83 44.55 26.85C44.33 26.98 44.11 27.1 43.88 27.21C43.75 27.28 43.61 27.32 43.47 27.38C43.33 27.43 43.19 27.49 43.05 27.54C42.82 27.62 42.57 27.69 42.33 27.75C42.28 27.76 42.23 27.78 42.18 27.79C42.02 27.83 41.87 27.86 41.71 27.88C41.55 27.91 41.4 27.93 41.24 27.95C41.08 27.97 40.92 27.98 40.76 27.99C40.61 28 40.45 28 40.29 28C39.22 28.02 38.16 27.83 37.16 27.43C36.17 27.04 35.26 26.46 34.49 25.71C33.72 24.97 33.11 24.08 32.68 23.1C32.25 22.12 32.02 21.07 32 20C32.02 18.93 32.25 17.88 32.68 16.9C33.1 15.93 33.71 15.04 34.48 14.3C35.24 13.56 36.14 12.97 37.13 12.58C38.12 12.18 39.18 11.99 40.25 12L40.29 12C40.9 12 41.51 12.06 42.11 12.19C42.71 12.32 43.3 12.52 43.85 12.78C44.41 13.03 44.94 13.35 45.42 13.73C45.91 14.1 46.36 14.52 46.75 14.99C47.15 14.52 47.59 14.1 48.08 13.73C48.57 13.35 49.09 13.04 49.65 12.78C50.21 12.52 50.79 12.32 51.39 12.19C51.99 12.06 52.6 12 53.22 12L53.27 12ZM53.22 25C53.89 25.02 54.56 24.9 55.19 24.66C55.82 24.42 56.4 24.06 56.89 23.59C57.38 23.13 57.78 22.57 58.05 21.96C58.33 21.34 58.48 20.67 58.5 20C58.48 19.33 58.33 18.66 58.05 18.04C57.78 17.43 57.38 16.87 56.89 16.41C56.4 15.94 55.82 15.58 55.19 15.34C54.56 15.1 53.89 14.98 53.22 15C52.82 15 52.43 15.04 52.04 15.12C51.66 15.2 51.28 15.33 50.92 15.49C50.56 15.66 50.23 15.86 49.91 16.1C49.6 16.34 49.31 16.61 49.06 16.91L46.75 19.69L44.44 16.91C44.19 16.61 43.9 16.34 43.59 16.1C43.27 15.86 42.94 15.66 42.58 15.49C42.22 15.33 41.84 15.2 41.46 15.12C41.07 15.04 40.68 15 40.28 15C39.61 14.98 38.94 15.1 38.31 15.34C37.68 15.58 37.1 15.95 36.61 16.41C36.12 16.87 35.72 17.43 35.45 18.05C35.17 18.66 35.02 19.33 35 20C35.02 20.68 35.17 21.34 35.45 21.96C35.72 22.57 36.12 23.13 36.61 23.59C37.1 24.06 37.68 24.42 38.31 24.66C38.94 24.9 39.61 25.02 40.28 25C40.68 25 41.07 24.96 41.46 24.88C41.84 24.8 42.22 24.67 42.58 24.51C42.94 24.34 43.28 24.14 43.59 23.9C43.9 23.66 44.19 23.39 44.44 23.09L46.75 20.31L49.06 23.09C49.31 23.39 49.6 23.66 49.91 23.9C50.23 24.14 50.56 24.34 50.92 24.51C51.28 24.67 51.66 24.8 52.04 24.88C52.43 24.97 52.82 25.01 53.22 25L53.22 25Z" />
		<path id="Layer" fill-rule="evenodd" class="shp0" d="M70.94 32.03L70.94 13.08L74.21 13.08L74.21 15.34C74.32 15.15 74.45 14.97 74.59 14.8C74.72 14.63 74.87 14.46 75.03 14.31C75.19 14.16 75.36 14.01 75.53 13.88C75.71 13.75 75.89 13.63 76.09 13.52C76.29 13.4 76.51 13.29 76.73 13.2C76.95 13.1 77.18 13.03 77.41 12.96C77.64 12.9 77.87 12.85 78.11 12.82C78.35 12.79 78.59 12.78 78.83 12.78C79.25 12.77 79.67 12.8 80.08 12.88C80.5 12.96 80.9 13.08 81.29 13.25C81.68 13.41 82.05 13.62 82.39 13.87C82.73 14.11 83.05 14.4 83.33 14.71C83.63 15.07 83.91 15.46 84.14 15.87C84.37 16.28 84.57 16.72 84.72 17.17C84.87 17.61 84.98 18.08 85.04 18.54C85.1 19.01 85.12 19.49 85.1 19.96L85.1 20.18C85.12 20.65 85.1 21.13 85.04 21.61C84.98 22.08 84.87 22.55 84.72 23C84.57 23.45 84.38 23.89 84.15 24.31C83.92 24.73 83.65 25.13 83.35 25.5C83.07 25.82 82.76 26.11 82.41 26.36C82.07 26.61 81.7 26.82 81.31 26.99C80.92 27.16 80.51 27.29 80.1 27.37C79.68 27.45 79.25 27.48 78.83 27.47C78.58 27.47 78.34 27.46 78.1 27.43C77.86 27.41 77.62 27.36 77.38 27.31C77.14 27.25 76.91 27.17 76.68 27.09C76.45 27 76.23 26.89 76.02 26.78C75.83 26.67 75.65 26.56 75.48 26.43C75.3 26.3 75.14 26.16 74.99 26.01C74.83 25.86 74.69 25.69 74.56 25.52C74.43 25.35 74.31 25.17 74.21 24.98L74.21 32.03L70.94 32.03ZM78.8 24.83C79.05 24.79 79.3 24.71 79.54 24.61C79.78 24.51 80.01 24.38 80.22 24.22C80.43 24.06 80.62 23.89 80.79 23.69C80.96 23.44 81.11 23.17 81.24 22.9C81.37 22.62 81.48 22.33 81.56 22.04C81.64 21.75 81.7 21.45 81.73 21.14C81.76 20.84 81.76 20.53 81.74 20.23L81.74 20.01C81.76 19.71 81.76 19.4 81.72 19.09C81.69 18.78 81.63 18.48 81.54 18.19C81.45 17.89 81.34 17.6 81.2 17.33C81.06 17.05 80.89 16.79 80.7 16.54C80.54 16.35 80.35 16.17 80.15 16.02C79.94 15.87 79.72 15.74 79.48 15.64C79.25 15.53 79 15.45 78.75 15.41C78.5 15.36 78.25 15.34 77.99 15.35C77.73 15.33 77.46 15.35 77.2 15.4C76.94 15.45 76.69 15.53 76.44 15.63C76.2 15.73 75.97 15.86 75.76 16.02C75.54 16.17 75.34 16.35 75.17 16.55C74.98 16.79 74.81 17.05 74.67 17.32C74.52 17.6 74.4 17.88 74.31 18.18C74.22 18.48 74.16 18.78 74.12 19.09C74.09 19.4 74.08 19.71 74.1 20.01L74.1 20.23C74.08 20.54 74.08 20.85 74.12 21.15C74.15 21.46 74.21 21.76 74.3 22.06C74.39 22.35 74.51 22.64 74.65 22.92C74.79 23.19 74.95 23.45 75.14 23.7C75.32 23.89 75.53 24.07 75.75 24.22C75.96 24.38 76.2 24.51 76.45 24.61C76.7 24.71 76.95 24.78 77.22 24.83C77.48 24.87 77.75 24.89 78.02 24.87C78.28 24.89 78.54 24.88 78.8 24.83ZM88.03 27.2L88.03 13.08L91.3 13.08L91.3 15.72C91.49 15.28 91.75 14.88 92.07 14.51C92.38 14.15 92.75 13.84 93.16 13.58C93.56 13.33 94 13.14 94.47 13.02C94.93 12.89 95.41 12.84 95.89 12.86L95.89 15.91C95.59 15.89 95.29 15.9 94.99 15.93C94.68 15.96 94.39 16.01 94.09 16.09C93.8 16.17 93.52 16.27 93.24 16.39C92.97 16.52 92.7 16.66 92.45 16.83C92.24 17.02 92.06 17.23 91.9 17.46C91.74 17.69 91.61 17.94 91.51 18.2C91.42 18.47 91.35 18.74 91.31 19.02C91.27 19.29 91.27 19.57 91.3 19.85L91.3 27.2L88.03 27.2ZM98.84 27.2L98.84 13.08L102.1 13.08L102.1 27.2L98.84 27.2ZM101.51 10.45C101.4 10.52 101.29 10.57 101.17 10.62C101.05 10.67 100.93 10.7 100.81 10.72C100.68 10.75 100.55 10.76 100.43 10.75C100.3 10.76 100.17 10.75 100.05 10.72C99.93 10.7 99.8 10.67 99.69 10.62C99.57 10.57 99.45 10.52 99.35 10.45C99.24 10.38 99.14 10.3 99.05 10.21C98.96 10.13 98.88 10.04 98.81 9.94C98.74 9.83 98.67 9.73 98.63 9.61C98.58 9.5 98.54 9.38 98.52 9.26C98.49 9.14 98.48 9.01 98.48 8.89C98.48 8.76 98.49 8.64 98.51 8.51C98.54 8.39 98.57 8.27 98.62 8.15C98.67 8.04 98.73 7.93 98.8 7.82C98.88 7.72 98.96 7.63 99.05 7.54C99.14 7.45 99.24 7.37 99.35 7.3C99.45 7.24 99.57 7.18 99.69 7.13C99.8 7.09 99.93 7.05 100.05 7.03C100.17 7.01 100.3 7 100.43 7C100.55 7 100.68 7.01 100.81 7.03C100.93 7.05 101.05 7.09 101.17 7.13C101.29 7.18 101.4 7.24 101.51 7.3C101.61 7.37 101.71 7.45 101.81 7.54C101.9 7.63 101.98 7.72 102.05 7.82C102.12 7.93 102.18 8.04 102.23 8.15C102.28 8.27 102.32 8.39 102.34 8.51C102.36 8.64 102.38 8.76 102.37 8.89C102.37 9.01 102.36 9.14 102.34 9.26C102.32 9.38 102.28 9.5 102.23 9.61C102.18 9.73 102.12 9.83 102.05 9.94C101.98 10.04 101.9 10.13 101.8 10.21C101.71 10.3 101.61 10.38 101.51 10.45ZM109.77 27.44C109.4 27.4 109.03 27.32 108.67 27.22C108.3 27.12 107.95 26.98 107.61 26.82C107.27 26.66 106.95 26.47 106.64 26.25C106.38 26.04 106.15 25.81 105.94 25.55C105.74 25.29 105.57 25.01 105.42 24.71C105.28 24.41 105.17 24.1 105.1 23.78C105.03 23.46 104.99 23.13 104.99 22.8L108.07 22.8C108.08 22.96 108.1 23.11 108.14 23.27C108.18 23.42 108.23 23.57 108.3 23.72C108.37 23.87 108.45 24 108.54 24.13C108.63 24.26 108.74 24.39 108.85 24.5C109 24.6 109.15 24.69 109.31 24.77C109.47 24.85 109.64 24.91 109.81 24.96C109.99 25.01 110.16 25.04 110.34 25.06C110.52 25.08 110.7 25.08 110.88 25.06C112.57 25.06 113.41 24.46 113.41 23.25C113.42 23.13 113.41 23 113.38 22.88C113.35 22.76 113.31 22.64 113.25 22.53C113.19 22.42 113.11 22.32 113.02 22.23C112.94 22.14 112.84 22.06 112.73 22C112.54 21.91 112.36 21.82 112.17 21.75C111.98 21.67 111.78 21.61 111.59 21.55C111.39 21.49 111.2 21.44 111 21.4C110.8 21.36 110.59 21.33 110.39 21.31C110.04 21.28 109.69 21.22 109.34 21.15C109 21.07 108.65 20.97 108.32 20.86C107.99 20.74 107.66 20.6 107.34 20.45C107.03 20.29 106.72 20.11 106.42 19.92C106.22 19.74 106.05 19.53 105.9 19.31C105.74 19.09 105.62 18.85 105.52 18.6C105.42 18.35 105.35 18.09 105.31 17.82C105.27 17.55 105.27 17.29 105.29 17.02C105.28 16.71 105.3 16.41 105.37 16.11C105.43 15.81 105.53 15.53 105.67 15.26C105.81 14.98 105.98 14.73 106.18 14.5C106.38 14.27 106.6 14.07 106.85 13.9C107.12 13.71 107.41 13.54 107.71 13.4C108 13.25 108.31 13.13 108.63 13.04C108.94 12.94 109.27 12.87 109.59 12.83C109.92 12.79 110.25 12.77 110.58 12.78C113.96 12.78 115.81 14.2 116.11 17.04L113.09 17.04C113.07 16.9 113.03 16.77 112.99 16.64C112.94 16.51 112.88 16.38 112.82 16.26C112.75 16.13 112.67 16.02 112.58 15.91C112.49 15.8 112.4 15.7 112.29 15.61C112.17 15.53 112.03 15.45 111.9 15.39C111.76 15.33 111.62 15.28 111.47 15.24C111.33 15.2 111.18 15.17 111.03 15.16C110.88 15.14 110.73 15.14 110.58 15.15C110.43 15.14 110.29 15.15 110.14 15.16C110 15.18 109.85 15.21 109.71 15.24C109.57 15.28 109.44 15.33 109.31 15.4C109.17 15.46 109.05 15.53 108.93 15.61C108.83 15.68 108.75 15.76 108.67 15.85C108.6 15.94 108.53 16.04 108.48 16.15C108.43 16.25 108.39 16.36 108.37 16.48C108.34 16.59 108.33 16.71 108.33 16.83C108.33 16.94 108.34 17.05 108.37 17.16C108.39 17.27 108.43 17.38 108.49 17.48C108.54 17.58 108.61 17.67 108.69 17.75C108.77 17.83 108.86 17.9 108.96 17.96C109.14 18.05 109.32 18.13 109.51 18.2C109.69 18.27 109.88 18.33 110.08 18.39C110.27 18.45 110.46 18.5 110.66 18.54C110.85 18.58 111.05 18.61 111.25 18.64C111.6 18.67 111.96 18.73 112.3 18.8C112.65 18.87 113 18.97 113.33 19.08C113.67 19.19 114 19.32 114.33 19.47C114.65 19.61 114.97 19.78 115.27 19.96C115.5 20.13 115.7 20.34 115.87 20.56C116.04 20.79 116.18 21.04 116.29 21.3C116.4 21.56 116.48 21.83 116.52 22.11C116.56 22.39 116.57 22.68 116.54 22.96C116.56 23.27 116.54 23.59 116.49 23.9C116.43 24.21 116.34 24.51 116.21 24.8C116.08 25.09 115.92 25.36 115.73 25.62C115.54 25.87 115.32 26.1 115.08 26.3C114.77 26.51 114.45 26.69 114.12 26.85C113.79 27.01 113.44 27.14 113.09 27.24C112.73 27.34 112.37 27.41 112 27.44C111.64 27.48 111.27 27.49 110.9 27.47C110.52 27.49 110.15 27.48 109.77 27.44ZM123.36 27.41C123.07 27.38 122.79 27.31 122.52 27.22C122.25 27.13 121.99 27.01 121.74 26.86C121.49 26.72 121.26 26.55 121.04 26.36C120.85 26.15 120.68 25.93 120.54 25.68C120.39 25.44 120.27 25.19 120.18 24.92C120.08 24.66 120.02 24.38 119.98 24.1C119.94 23.82 119.93 23.54 119.95 23.26L119.95 15.54L118.06 15.54L118.06 13.08L119.95 13.08L119.95 9.98L123.22 9.98L123.22 13.08L126.32 13.08L126.32 15.54L123.22 15.54L123.22 22.96C123.22 24.17 123.76 24.77 124.84 24.77C124.97 24.77 125.11 24.77 125.24 24.76C125.38 24.75 125.51 24.74 125.65 24.71C125.78 24.69 125.91 24.66 126.04 24.63C126.17 24.59 126.3 24.55 126.43 24.5L126.43 27.09C126.25 27.15 126.07 27.2 125.89 27.25C125.71 27.29 125.52 27.33 125.34 27.36C125.15 27.39 124.97 27.41 124.78 27.43C124.59 27.44 124.4 27.44 124.22 27.44C123.93 27.46 123.64 27.45 123.36 27.41ZM129.45 27.2L129.45 13.08L132.72 13.08L132.72 27.2L129.45 27.2ZM132.13 10.45C132.02 10.52 131.91 10.57 131.79 10.62C131.67 10.67 131.55 10.7 131.42 10.72C131.3 10.75 131.17 10.76 131.05 10.75C130.92 10.76 130.79 10.75 130.67 10.72C130.54 10.7 130.42 10.67 130.3 10.62C130.19 10.57 130.07 10.52 129.97 10.45C129.86 10.38 129.76 10.3 129.67 10.21C129.58 10.13 129.5 10.04 129.42 9.94C129.35 9.83 129.29 9.73 129.24 9.61C129.19 9.5 129.16 9.38 129.13 9.26C129.11 9.14 129.1 9.01 129.1 8.89C129.1 8.76 129.11 8.64 129.13 8.51C129.16 8.39 129.19 8.27 129.24 8.15C129.29 8.04 129.35 7.93 129.42 7.82C129.49 7.72 129.58 7.63 129.67 7.54C129.76 7.45 129.86 7.37 129.97 7.3C130.07 7.24 130.19 7.18 130.3 7.13C130.42 7.09 130.54 7.05 130.67 7.03C130.79 7.01 130.92 7 131.05 7C131.17 7 131.3 7.01 131.42 7.03C131.55 7.05 131.67 7.09 131.79 7.13C131.91 7.18 132.02 7.24 132.13 7.3C132.23 7.37 132.33 7.45 132.42 7.54C132.51 7.63 132.6 7.72 132.67 7.82C132.74 7.93 132.8 8.04 132.85 8.15C132.9 8.27 132.94 8.39 132.96 8.51C132.98 8.64 132.99 8.76 132.99 8.89C132.99 9.01 132.98 9.14 132.96 9.26C132.93 9.38 132.9 9.5 132.85 9.61C132.8 9.73 132.74 9.83 132.67 9.94C132.6 10.04 132.51 10.13 132.42 10.21C132.33 10.3 132.23 10.38 132.13 10.45ZM136.69 27.2L136.69 13.08L139.96 13.08L139.96 15.32C140.05 15.13 140.16 14.94 140.28 14.77C140.41 14.6 140.54 14.43 140.69 14.28C140.83 14.12 140.99 13.98 141.16 13.85C141.32 13.72 141.5 13.6 141.68 13.5C141.9 13.37 142.12 13.26 142.35 13.17C142.58 13.08 142.81 13 143.05 12.94C143.29 12.88 143.53 12.84 143.78 12.81C144.03 12.78 144.27 12.77 144.52 12.78C144.84 12.76 145.17 12.78 145.49 12.83C145.81 12.88 146.13 12.97 146.43 13.09C146.74 13.2 147.03 13.35 147.3 13.53C147.57 13.71 147.83 13.91 148.06 14.14C148.29 14.43 148.5 14.74 148.68 15.07C148.85 15.4 149 15.75 149.11 16.1C149.22 16.46 149.3 16.83 149.34 17.2C149.38 17.57 149.39 17.94 149.36 18.32L149.36 27.2L146.08 27.2L146.08 18.61C146.1 18.4 146.1 18.19 146.08 17.99C146.06 17.78 146.02 17.57 145.96 17.37C145.9 17.17 145.83 16.98 145.74 16.79C145.64 16.61 145.53 16.43 145.41 16.26C145.27 16.13 145.12 16.01 144.95 15.9C144.79 15.8 144.61 15.72 144.43 15.65C144.24 15.59 144.05 15.54 143.86 15.52C143.67 15.49 143.47 15.49 143.28 15.5C143.06 15.5 142.84 15.51 142.63 15.54C142.41 15.58 142.2 15.63 142 15.71C141.79 15.78 141.59 15.88 141.41 15.99C141.22 16.1 141.05 16.23 140.89 16.38C140.73 16.55 140.58 16.73 140.46 16.92C140.34 17.11 140.24 17.32 140.15 17.53C140.07 17.75 140.02 17.97 139.98 18.2C139.95 18.42 139.94 18.65 139.96 18.88L139.96 27.2L136.69 27.2Z" />
	</g>
	<g id="&lt;Group&gt;">
		<path id="&lt;Compound Path&gt;" fill-rule="evenodd" class="shp1" d="M22.82 1C23 1 23.18 1 23.36 1C23.42 1.01 23.49 1.02 23.55 1.02C24.28 1.04 25.01 1.11 25.74 1.21C26.54 1.32 27.32 1.48 28.1 1.7C30.88 2.47 33.37 3.8 35.54 5.71C38.19 8.03 40.06 10.88 41.14 14.23C41.44 15.16 41.66 16.1 41.81 17.07C41.89 17.55 41.96 18.04 41.97 18.54C41.97 18.6 41.99 18.65 42 18.71C42 19.58 42 20.45 42 21.32C41.99 21.38 41.97 21.43 41.97 21.48C41.96 21.86 41.91 22.23 41.86 22.6C41.74 23.5 41.56 24.4 41.3 25.27C40.05 29.51 37.62 32.93 34.02 35.5C31.04 37.63 27.7 38.78 24.03 38.97C23.98 38.98 23.92 38.99 23.86 39C23.31 39 22.76 39 22.21 39C22.17 38.99 22.12 38.98 22.07 38.97C21.75 38.95 21.42 38.93 21.09 38.9C20.49 38.84 19.9 38.75 19.31 38.63C17.6 38.29 15.97 37.72 14.42 36.93C10 34.67 6.63 30.76 5.04 26.06C4.71 25.07 4.46 24.05 4.29 23.01C4.21 22.51 4.15 22 4.12 21.49C4.09 21.11 4.08 20.73 4.06 20.34C4.06 20.3 4.07 20.25 4.06 20.2C4.05 20.18 4.02 20.16 4 20.14C4 20.1 4 20.05 4 20C4.02 19.99 4.05 19.98 4.05 19.96C4.06 19.91 4.06 19.87 4.06 19.82C4.07 18.91 4.14 18.01 4.28 17.11C4.41 16.26 4.59 15.41 4.85 14.59C6.11 10.45 8.49 7.11 11.99 4.57C14.05 3.08 16.34 2.06 18.82 1.49C19.58 1.32 20.34 1.19 21.11 1.12C21.61 1.06 22.11 1.03 22.61 1.02C22.68 1.02 22.75 1.01 22.82 1ZM22.69 13.26C22.65 13.26 22.61 13.25 22.57 13.24C22.36 13.21 22.16 13.2 21.95 13.15C19.59 12.67 17.96 10.74 17.7 8.58C17.6 7.79 17.66 7.01 17.91 6.25C18.77 3.56 21.57 1.96 24.37 2.68C27.08 3.37 28.91 6.1 28.28 9.03C27.78 11.37 25.79 13.05 23.49 13.24C23.46 13.24 23.43 13.26 23.4 13.26C23.37 13.43 23.35 18.99 23.38 19.62C23.38 19.65 23.39 19.69 23.39 19.73C23.42 19.73 23.44 19.74 23.47 19.74C26.28 19.74 29.09 19.74 31.9 19.74C31.86 19.71 31.81 19.69 31.75 19.68C31.68 19.66 31.6 19.65 31.53 19.63C28.76 18.95 26.89 16.19 27.56 13.21C28.2 10.33 31.07 8.48 34.04 9.17C36.83 9.83 38.68 12.59 38.05 15.55C37.61 17.64 35.94 19.26 33.84 19.68C33.79 19.69 33.74 19.7 33.68 19.74C33.76 19.74 33.83 19.74 33.89 19.74C36.3 19.74 38.7 19.74 41.1 19.74C41.15 19.74 41.2 19.74 41.25 19.74C41.28 19.74 41.32 19.73 41.36 19.72C41.36 19.66 41.36 19.6 41.36 19.54C41.35 19.02 41.31 18.5 41.26 17.99C41.17 17.2 41.04 16.42 40.85 15.65C40 12.26 38.34 9.34 35.84 6.9C32.52 3.65 28.11 1.77 23.34 1.69C22.26 1.67 21.2 1.75 20.13 1.92C19.08 2.09 18.04 2.35 17.03 2.7C11.73 4.55 7.58 8.71 5.73 14.01C5.38 15.02 5.12 16.06 4.96 17.11C4.9 17.51 4.85 17.91 4.81 18.32C4.76 18.76 4.75 19.2 4.74 19.64C4.73 19.67 4.75 19.7 4.76 19.74C7.3 19.74 9.84 19.74 12.38 19.74C12.29 19.67 12.18 19.67 12.09 19.65C9.23 19.01 7.29 16.13 8.06 13.07C8.78 10.22 11.67 8.47 14.58 9.19C17.19 9.84 19.1 12.44 18.55 15.41C18.28 16.86 17.51 18 16.3 18.85C15.7 19.26 15.03 19.54 14.32 19.68C14.29 19.68 14.26 19.69 14.23 19.7C14.21 19.71 14.19 19.72 14.15 19.74C17 19.74 19.83 19.74 22.65 19.74C22.66 19.74 22.67 19.73 22.69 19.72C22.69 19.71 22.7 19.69 22.7 19.67C22.71 17.56 22.71 15.45 22.71 13.34C22.71 13.32 22.7 13.29 22.69 13.26ZM12.5 20.41C9.92 20.41 7.36 20.41 4.8 20.41C4.79 20.41 4.77 20.42 4.76 20.43C4.73 20.5 4.74 20.56 4.74 20.63C4.76 21.31 4.83 21.99 4.92 22.67C5.05 23.54 5.23 24.4 5.49 25.24C6.62 28.97 8.72 32.06 11.8 34.46C14.86 36.85 18.35 38.12 22.23 38.31C22.87 38.34 23.52 38.33 24.16 38.29C24.87 38.25 25.58 38.17 26.29 38.04C27.49 37.83 28.66 37.5 29.79 37.05C34.84 35.05 38.75 30.9 40.45 25.75C40.77 24.8 41 23.83 41.15 22.85C41.21 22.45 41.26 22.06 41.29 21.66C41.32 21.3 41.34 20.94 41.36 20.59C41.36 20.54 41.36 20.48 41.35 20.44C41.34 20.43 41.33 20.42 41.33 20.42C41.31 20.42 41.29 20.41 41.28 20.41C38.73 20.41 36.19 20.41 33.65 20.41C33.65 20.41 33.64 20.41 33.64 20.41C33.63 20.42 33.63 20.42 33.62 20.44C34.57 20.59 35.43 20.97 36.18 21.57C36.93 22.17 37.49 22.93 37.83 23.84C38.18 24.73 38.28 25.66 38.12 26.61C37.72 29.12 35.65 30.96 33.18 31.13C30.5 31.3 28.27 29.54 27.63 27.18C27.58 26.99 27.54 26.81 27.51 26.62C27.48 26.44 27.46 26.25 27.45 26.07C27.44 25.88 27.43 25.69 27.44 25.5C27.45 25.31 27.48 25.11 27.51 24.93C27.54 24.74 27.57 24.55 27.62 24.37C27.67 24.19 27.73 24.01 27.79 23.84C27.86 23.66 27.94 23.49 28.03 23.32C28.11 23.15 28.21 22.98 28.31 22.82C28.42 22.66 28.53 22.51 28.65 22.36C28.77 22.22 28.89 22.08 29.02 21.95C29.16 21.82 29.3 21.69 29.45 21.57C29.6 21.45 29.75 21.34 29.91 21.24C30.07 21.13 30.24 21.04 30.41 20.95C30.58 20.87 30.74 20.8 30.92 20.73C31.1 20.66 31.28 20.62 31.46 20.56C31.64 20.5 31.83 20.49 32.01 20.42C29.16 20.41 26.31 20.41 23.46 20.41C23.44 20.41 23.42 20.42 23.4 20.43C23.36 20.51 23.38 20.58 23.38 20.66C23.38 22.61 23.38 24.56 23.38 26.51C23.38 26.56 23.37 26.61 23.38 26.65C23.38 26.69 23.39 26.72 23.4 26.76C24.89 26.89 26.14 27.5 27.12 28.63C28.1 29.78 28.52 31.11 28.4 32.61C28.15 35.39 25.84 37.43 23.21 37.51C20.49 37.59 18.08 35.61 17.71 32.85C17.53 31.48 17.83 30.21 18.62 29.08C19.61 27.67 20.98 26.92 22.69 26.76C22.72 26.68 22.71 26.61 22.71 26.54C22.71 24.58 22.71 22.61 22.71 20.65C22.71 20.61 22.71 20.57 22.71 20.53C22.7 20.49 22.7 20.46 22.69 20.43C22.66 20.42 22.65 20.41 22.63 20.41C19.79 20.41 16.95 20.41 14.11 20.41C14.11 20.41 14.1 20.41 14.1 20.41C14.1 20.42 14.1 20.43 14.1 20.45C14.64 20.53 15.16 20.69 15.65 20.93C16.15 21.18 16.61 21.5 17.01 21.89C17.41 22.27 17.74 22.7 18 23.19C18.27 23.68 18.46 24.2 18.56 24.75C18.67 25.29 18.69 25.84 18.63 26.38C18.33 28.89 16.34 30.89 13.78 31.12C11.12 31.36 8.9 29.69 8.17 27.42C8.14 27.34 8.12 27.27 8.1 27.19C8.08 27.11 8.06 27.03 8.04 26.95C8.02 26.88 8.01 26.8 7.99 26.72C7.98 26.64 7.96 26.56 7.95 26.48C7.94 26.4 7.94 26.32 7.93 26.24C7.92 26.17 7.91 26.09 7.91 26.01C7.91 25.93 7.91 25.85 7.91 25.76C7.91 25.69 7.91 25.61 7.91 25.53C7.91 25.45 7.92 25.38 7.93 25.3C7.94 25.22 7.94 25.13 7.95 25.05C7.96 24.97 7.98 24.9 7.99 24.82C8 24.74 8.02 24.66 8.04 24.57C8.06 24.5 8.07 24.42 8.09 24.35C8.11 24.27 8.14 24.2 8.16 24.13C8.19 24.05 8.21 23.97 8.24 23.89C8.27 23.82 8.3 23.74 8.33 23.67C8.36 23.6 8.4 23.52 8.43 23.45C8.46 23.38 8.5 23.31 8.54 23.24C8.57 23.17 8.61 23.1 8.65 23.04C8.69 22.96 8.74 22.89 8.78 22.82C8.82 22.76 8.87 22.69 8.91 22.63C8.96 22.57 9 22.51 9.05 22.44C9.1 22.38 9.16 22.31 9.21 22.25C9.26 22.19 9.31 22.14 9.37 22.08C9.42 22.02 9.48 21.96 9.54 21.9C9.6 21.85 9.66 21.79 9.71 21.74C9.77 21.69 9.83 21.64 9.89 21.59C9.96 21.54 10.02 21.49 10.09 21.44C10.15 21.39 10.21 21.35 10.28 21.3C10.35 21.26 10.42 21.21 10.49 21.17C10.55 21.13 10.62 21.09 10.69 21.05C10.76 21.01 10.83 20.98 10.9 20.94C10.97 20.91 11.05 20.87 11.12 20.84C11.19 20.81 11.26 20.78 11.34 20.75C11.41 20.72 11.48 20.7 11.56 20.67C11.63 20.64 11.71 20.62 11.79 20.6C11.87 20.57 11.94 20.55 12.02 20.54C12.1 20.52 12.18 20.5 12.26 20.48C12.33 20.46 12.42 20.48 12.5 20.41ZM23.39 12.56C23.63 12.57 23.85 12.52 24.06 12.47C26.52 11.92 28.23 9.47 27.6 6.79C27.03 4.37 24.6 2.71 21.97 3.3C19.62 3.83 17.95 6.13 18.39 8.71C18.67 10.28 19.74 11.61 21.21 12.23C21.65 12.41 22.11 12.53 22.59 12.57C22.63 12.57 22.66 12.56 22.7 12.55C22.7 12.47 22.71 12.4 22.71 12.33C22.71 10.9 22.71 9.47 22.71 8.04C22.71 7.97 22.7 7.91 22.71 7.84C22.73 7.67 22.87 7.55 23.04 7.55C23.21 7.54 23.35 7.66 23.37 7.83C23.38 7.89 23.38 7.95 23.38 8.01C23.38 8.62 23.38 9.23 23.38 9.84C23.38 10.67 23.38 11.51 23.38 12.34C23.38 12.41 23.37 12.48 23.39 12.56ZM12.93 19.08C12.96 19.01 12.94 18.94 12.94 18.87C12.94 17.41 12.94 15.94 12.94 14.47C12.94 14.42 12.94 14.36 12.94 14.31C12.96 14.12 13.09 13.98 13.27 13.98C13.46 13.98 13.6 14.1 13.61 14.3C13.62 14.35 13.62 14.41 13.62 14.46C13.62 15.91 13.62 17.37 13.62 18.82C13.62 18.88 13.61 18.93 13.62 18.98C13.62 19.02 13.63 19.05 13.64 19.09C15.94 18.95 18.04 16.93 17.97 14.27C17.9 11.75 15.8 9.6 13.08 9.7C10.43 9.81 8.43 12.06 8.57 14.66C8.71 17.24 10.86 19.01 12.93 19.08ZM33.16 19.09C35.5 18.95 37.64 16.88 37.5 14.14C37.37 11.68 35.27 9.59 32.6 9.7C30.01 9.81 28.01 11.98 28.1 14.55C28.19 17.27 30.43 19.01 32.46 19.08C32.48 19.02 32.48 18.94 32.48 18.87C32.48 17.35 32.48 15.83 32.48 14.31C32.48 14.25 32.47 14.19 32.48 14.13C32.49 13.96 32.62 13.84 32.79 13.83C32.97 13.82 33.12 13.94 33.14 14.12C33.15 14.18 33.14 14.24 33.14 14.3C33.14 14.93 33.14 15.57 33.14 16.2C33.14 17.09 33.14 17.97 33.14 18.86C33.14 18.93 33.13 19 33.16 19.09Z" />
		<path id="&lt;Path&gt;" class="shp2" d="M22.69 13.26C22.7 13.29 22.71 13.32 22.71 13.34C22.71 15.45 22.71 17.56 22.7 19.67C22.7 19.69 22.69 19.71 22.69 19.72C22.67 19.73 22.66 19.74 22.65 19.74C19.83 19.74 17 19.74 14.15 19.74C14.19 19.72 14.21 19.71 14.23 19.7C14.26 19.69 14.29 19.68 14.32 19.68C15.03 19.54 15.7 19.26 16.3 18.85C17.51 18 18.28 16.86 18.55 15.41C19.1 12.44 17.19 9.84 14.58 9.19C11.67 8.47 8.78 10.22 8.06 13.07C7.29 16.13 9.23 19.01 12.09 19.65C12.18 19.67 12.29 19.67 12.38 19.74C9.84 19.74 7.3 19.74 4.76 19.74C4.75 19.7 4.73 19.67 4.74 19.64C4.75 19.2 4.76 18.76 4.81 18.32C4.85 17.91 4.9 17.51 4.96 17.11C5.12 16.06 5.38 15.02 5.73 14.01C7.58 8.71 11.73 4.55 17.03 2.7C18.04 2.35 19.08 2.09 20.13 1.92C21.2 1.75 22.26 1.67 23.34 1.69C28.11 1.77 32.52 3.65 35.84 6.9C38.34 9.34 40 12.26 40.85 15.65C41.04 16.42 41.17 17.2 41.26 17.99C41.31 18.5 41.35 19.02 41.36 19.54C41.36 19.6 41.36 19.66 41.36 19.72C41.32 19.73 41.28 19.74 41.25 19.74C41.2 19.74 41.15 19.74 41.1 19.74C38.7 19.74 36.3 19.74 33.89 19.74C33.83 19.74 33.76 19.74 33.68 19.74C33.74 19.7 33.79 19.69 33.84 19.68C35.94 19.26 37.61 17.64 38.05 15.55C38.68 12.59 36.83 9.83 34.04 9.17C31.07 8.48 28.2 10.33 27.56 13.21C26.89 16.19 28.76 18.95 31.53 19.63C31.6 19.65 31.68 19.66 31.75 19.68C31.81 19.69 31.86 19.71 31.9 19.74C29.09 19.74 26.28 19.74 23.47 19.74C23.44 19.74 23.42 19.73 23.39 19.73C23.39 19.69 23.38 19.65 23.38 19.62C23.35 18.99 23.37 13.43 23.4 13.26C23.43 13.26 23.46 13.24 23.49 13.24C25.79 13.05 27.78 11.37 28.28 9.03C28.91 6.1 27.08 3.37 24.37 2.68C21.57 1.96 18.77 3.56 17.91 6.25C17.66 7.01 17.6 7.79 17.7 8.58C17.96 10.74 19.59 12.67 21.95 13.15C22.16 13.2 22.36 13.21 22.57 13.24C22.61 13.25 22.65 13.26 22.69 13.26Z" />
		<path id="&lt;Path&gt;" class="shp2" d="M12.5 20.41C12.42 20.48 12.33 20.46 12.26 20.48C12.18 20.5 12.1 20.52 12.02 20.54C11.94 20.55 11.87 20.57 11.79 20.6C11.71 20.62 11.63 20.64 11.56 20.67C11.48 20.7 11.41 20.72 11.34 20.75C11.26 20.78 11.19 20.81 11.12 20.84C11.05 20.87 10.97 20.91 10.9 20.94C10.83 20.98 10.76 21.01 10.69 21.05C10.62 21.09 10.55 21.13 10.49 21.17C10.42 21.21 10.35 21.26 10.28 21.3C10.21 21.35 10.15 21.39 10.09 21.44C10.02 21.49 9.96 21.54 9.89 21.59C9.83 21.64 9.77 21.69 9.71 21.74C9.66 21.79 9.6 21.85 9.54 21.9C9.48 21.96 9.42 22.02 9.37 22.08C9.31 22.14 9.26 22.19 9.21 22.25C9.16 22.31 9.1 22.38 9.05 22.44C9 22.51 8.96 22.57 8.91 22.63C8.87 22.69 8.82 22.76 8.78 22.82C8.74 22.89 8.69 22.96 8.65 23.04C8.61 23.1 8.57 23.17 8.54 23.24C8.5 23.31 8.46 23.38 8.43 23.45C8.4 23.52 8.36 23.6 8.33 23.67C8.3 23.74 8.27 23.82 8.24 23.89C8.21 23.97 8.19 24.05 8.16 24.13C8.14 24.2 8.11 24.27 8.09 24.35C8.07 24.42 8.06 24.5 8.04 24.57C8.02 24.66 8 24.74 7.99 24.82C7.98 24.9 7.96 24.97 7.95 25.05C7.94 25.13 7.94 25.22 7.93 25.3C7.92 25.38 7.91 25.45 7.91 25.53C7.91 25.61 7.91 25.69 7.91 25.76C7.91 25.85 7.91 25.93 7.91 26.01C7.91 26.09 7.92 26.17 7.93 26.24C7.94 26.32 7.94 26.4 7.95 26.48C7.96 26.56 7.98 26.64 7.99 26.72C8.01 26.8 8.02 26.88 8.04 26.95C8.06 27.03 8.08 27.11 8.1 27.19C8.12 27.27 8.14 27.34 8.17 27.42C8.9 29.69 11.12 31.36 13.78 31.12C16.34 30.89 18.33 28.89 18.63 26.38C18.69 25.84 18.67 25.29 18.56 24.75C18.46 24.2 18.27 23.68 18 23.19C17.74 22.7 17.41 22.27 17.01 21.89C16.61 21.5 16.15 21.18 15.65 20.93C15.16 20.69 14.64 20.53 14.1 20.45C14.1 20.43 14.1 20.42 14.1 20.41C14.1 20.41 14.11 20.41 14.11 20.41C16.95 20.41 19.79 20.41 22.63 20.41C22.65 20.41 22.66 20.42 22.69 20.43C22.7 20.46 22.7 20.49 22.71 20.53C22.71 20.57 22.71 20.61 22.71 20.65C22.71 22.61 22.71 24.58 22.71 26.54C22.71 26.61 22.72 26.68 22.69 26.76C20.98 26.92 19.61 27.67 18.62 29.08C17.83 30.21 17.53 31.48 17.71 32.85C18.08 35.61 20.49 37.59 23.21 37.51C25.84 37.43 28.15 35.39 28.4 32.61C28.52 31.11 28.1 29.78 27.12 28.63C26.14 27.5 24.89 26.89 23.4 26.76C23.39 26.72 23.38 26.69 23.38 26.65C23.37 26.61 23.38 26.56 23.38 26.51C23.38 24.56 23.38 22.61 23.38 20.66C23.38 20.58 23.36 20.51 23.4 20.43C23.42 20.42 23.44 20.41 23.46 20.41C26.31 20.41 29.16 20.41 32.01 20.42C31.83 20.49 31.64 20.5 31.46 20.56C31.28 20.62 31.1 20.66 30.92 20.73C30.74 20.8 30.58 20.87 30.41 20.95C30.24 21.04 30.07 21.13 29.91 21.24C29.75 21.34 29.6 21.45 29.45 21.57C29.3 21.69 29.16 21.82 29.02 21.95C28.89 22.08 28.77 22.22 28.65 22.36C28.53 22.51 28.42 22.66 28.31 22.82C28.21 22.98 28.11 23.15 28.03 23.32C27.94 23.49 27.86 23.66 27.79 23.84C27.73 24.01 27.67 24.19 27.62 24.37C27.57 24.55 27.54 24.74 27.51 24.93C27.48 25.11 27.45 25.31 27.44 25.5C27.43 25.69 27.44 25.88 27.45 26.07C27.46 26.25 27.48 26.44 27.51 26.62C27.54 26.81 27.58 26.99 27.63 27.18C28.27 29.54 30.5 31.3 33.18 31.13C35.65 30.96 37.72 29.12 38.12 26.61C38.28 25.66 38.18 24.73 37.83 23.84C37.49 22.93 36.93 22.17 36.18 21.57C35.43 20.97 34.57 20.59 33.62 20.44C33.63 20.42 33.63 20.42 33.64 20.41C33.64 20.41 33.65 20.41 33.65 20.41C36.19 20.41 38.73 20.41 41.28 20.41C41.29 20.41 41.31 20.42 41.33 20.42C41.33 20.42 41.34 20.43 41.35 20.44C41.36 20.48 41.36 20.54 41.36 20.59C41.34 20.94 41.32 21.3 41.29 21.66C41.26 22.06 41.21 22.45 41.15 22.85C41 23.83 40.77 24.8 40.45 25.75C38.75 30.9 34.84 35.05 29.79 37.05C28.66 37.5 27.49 37.83 26.29 38.04C25.58 38.17 24.87 38.25 24.16 38.29C23.52 38.33 22.87 38.34 22.23 38.31C18.35 38.12 14.86 36.85 11.8 34.46C8.72 32.06 6.62 28.97 5.49 25.24C5.23 24.4 5.05 23.54 4.92 22.67C4.83 21.99 4.76 21.31 4.74 20.63C4.74 20.56 4.73 20.5 4.76 20.43C4.77 20.42 4.79 20.41 4.8 20.41C7.36 20.41 9.92 20.41 12.5 20.41Z" />
		<path id="&lt;Path&gt;" class="shp2" d="M23.39 12.56C23.37 12.48 23.38 12.41 23.38 12.34C23.38 11.51 23.38 10.67 23.38 9.84C23.38 9.23 23.38 8.62 23.38 8.01C23.38 7.95 23.38 7.89 23.37 7.83C23.35 7.66 23.21 7.54 23.04 7.55C22.87 7.55 22.73 7.67 22.71 7.84C22.7 7.91 22.71 7.97 22.71 8.04C22.71 9.47 22.71 10.9 22.71 12.33C22.71 12.4 22.7 12.47 22.7 12.55C22.66 12.56 22.63 12.57 22.59 12.57C22.11 12.53 21.65 12.41 21.21 12.23C19.74 11.61 18.67 10.28 18.39 8.71C17.95 6.13 19.62 3.83 21.97 3.3C24.6 2.71 27.03 4.37 27.6 6.79C28.23 9.47 26.52 11.92 24.06 12.47C23.85 12.52 23.63 12.57 23.39 12.56Z" />
		<path id="&lt;Path&gt;" class="shp2" d="M12.93 19.08C10.86 19.01 8.71 17.24 8.57 14.66C8.43 12.06 10.43 9.81 13.08 9.7C15.8 9.6 17.9 11.75 17.97 14.27C18.04 16.93 15.94 18.95 13.64 19.09C13.63 19.05 13.62 19.02 13.62 18.98C13.61 18.93 13.62 18.88 13.62 18.82C13.62 17.37 13.62 15.91 13.62 14.46C13.62 14.41 13.62 14.35 13.61 14.3C13.6 14.1 13.46 13.98 13.27 13.98C13.09 13.98 12.96 14.12 12.94 14.31C12.94 14.36 12.94 14.42 12.94 14.47C12.94 15.94 12.94 17.41 12.94 18.87C12.94 18.94 12.96 19.01 12.93 19.08Z" />
		<path id="&lt;Path&gt;" class="shp2" d="M33.16 19.09C33.13 19 33.14 18.93 33.14 18.86C33.14 17.97 33.14 17.09 33.14 16.2C33.14 15.57 33.14 14.93 33.14 14.3C33.14 14.24 33.15 14.18 33.14 14.12C33.12 13.94 32.97 13.82 32.79 13.83C32.62 13.84 32.49 13.96 32.48 14.13C32.47 14.19 32.48 14.25 32.48 14.31C32.48 15.83 32.48 17.35 32.48 18.87C32.48 18.94 32.48 19.02 32.46 19.08C30.43 19.01 28.19 17.27 28.1 14.55C28.01 11.98 30.01 9.81 32.6 9.7C35.27 9.59 37.37 11.68 37.5 14.14C37.64 16.88 35.5 18.95 33.16 19.09Z" />
	</g>
</svg>